<?xml version="1.0" encoding="UTF-8" standalone="no"?>
<svg
   viewBox="0 0 140 34"
   version="1.1"
   id="svg58"
   sodipodi:docname="rumble-full-logo.svg"
   inkscape:version="1.1.2 (1:1.1+202202050950+0a00cf5339)"
   xmlns:inkscape="http://www.inkscape.org/namespaces/inkscape"
   xmlns:sodipodi="http://sodipodi.sourceforge.net/DTD/sodipodi-0.dtd"
   xmlns:xlink="http://www.w3.org/1999/xlink"
   xmlns="http://www.w3.org/2000/svg"
   xmlns:svg="http://www.w3.org/2000/svg">
  <sodipodi:namedview
     id="namedview60"
     pagecolor="#505050"
     bordercolor="#ffffff"
     borderopacity="1"
     inkscape:pageshadow="0"
     inkscape:pageopacity="0"
     inkscape:pagecheckerboard="1"
     showgrid="false"
     inkscape:zoom="4.25"
     inkscape:cx="73.764706"
     inkscape:cy="8.3529412"
     inkscape:window-width="1366"
     inkscape:window-height="738"
     inkscape:window-x="0"
     inkscape:window-y="0"
     inkscape:window-maximized="1"
     inkscape:current-layer="svg58" />
  <style
     id="style2">.st0{fill:#74a441}.st2{clip-path:url(#si2)}</style>
  <path
     class="st0"
     d="m 12.00176,4.2807051 c -5.8114109,3.2847102 -5.8114109,22.7403019 0,25.7723419 5.81141,3.284711 21.729621,-8.33811 21.729621,-13.391511 0,-6.31675 -16.170881,-15.4128709 -21.729621,-12.3808309 z"
     id="path8-3"
     style="fill:#fffffe;fill-opacity:1;stroke-width:2.5267" />
  <path
     class="st0"
     d="M7.1 3.5c.8-.5 1.8-.7 2.8-.6.4-.5.9-1 1.5-1.3 2.7-1.5 7-.2 13.3 3.5 6.5 3.8 9.7 6.8 9.7 10 0 .7-.2 1.5-.5 2.2.4.8.6 1.5.5 2.3 0 3.1-3.3 6.2-9.7 9.9-6.4 3.7-10.6 5-13.4 3.5a5 5 0 01-1.9-1.9c-.9 0-1.7-.2-2.4-.6-2.7-1.6-3.8-5.9-3.8-13.4C3.3 9.3 4.3 5 7.1 3.5zM11.9 7c-4.5 2.5-4.5 17.9 0 20.4 4.6 2.7 17-6.5 17.1-10.4 0-5.2-12.7-12.4-17.1-10z"
     id="path4"
     style="fill:#01fe42;fill-opacity:1" />
  <path
     d="M125.9 16.2h6.5c-.1-1.1-.4-2-.9-2.5-.5-.6-1.3-.9-2.4-.9-.9 0-1.7.3-2.3.9-.5.6-.8 1.4-.9 2.5m7.7 5h3.2a7.4 7.4 0 01-2.7 4.1 8 8 0 01-5 1.5c-2.4 0-4.3-.8-5.7-2.4-1.4-1.5-2-3.7-2-6.6 0-2.7.7-4.8 2-6.4 1.4-1.6 3.2-2.4 5.7-2.4s4.5.8 5.9 2.3c1.4 1.6 2 3.8 2 6.6v.7l-.1.4h-11a4 4 0 001 2.9c.5.7 1.4 1 2.5 1 .7 0 1.3-.1 1.8-.4l.3-.2.4-.4.5-.5 1.2-.2zM115 4.5h2.3a2 2 0 012.1 2.1v19.8H115V4.5zm-6.8 13.3c0-1.5-.3-2.7-1-3.6a3 3 0 00-2.6-1.3c-1.2 0-2.1.4-2.7 1.3-.6.9-1 2.1-1 3.6 0 1.8.3 3.1.9 3.9.6.9 1.5 1.3 2.7 1.3 1.2 0 2.1-.4 2.7-1.3a7 7 0 001-3.9zm-7.3-11.2v5.1c.5-.8 1.1-1.5 2-2a6 6 0 012.8-.6c2 0 3.6.8 4.9 2.5 1.3 1.7 1.9 3.8 1.9 6.4a10 10 0 01-1.9 6.4c-.6.8-1.5 1.4-2.6 1.7-1.1.4-2.2.5-3.2.5-4.9 0-8.3-2.6-8.3-7.7V4.5h2.2a2 2 0 011.5.6c.5.4.7.9.7 1.5zM83.4 26.4H79V15.6c0-1-.3-1.8-.9-2.2-.6-.5-1.3-.7-2.1-.7s-1.4.2-2 .7c-.6.5-.9 1.2-.9 2.2v10.8h-4.5v-9.9c0-2.9.8-4.8 2.3-5.8a9.9 9.9 0 017.9-1.3 5 5 0 012.5 1.3c.6-.6 1.4-.9 2.3-1.2.9-.2 1.8-.4 2.7-.4 1.9 0 3.6.5 5.2 1.5s2.4 2.9 2.4 5.9v9.9h-2.2c-.6 0-1.2-.2-1.6-.6-.4-.4-.6-.9-.6-1.6v-8.7c0-1-.3-1.8-.9-2.2-.6-.5-1.3-.7-2.1-.7s-1.5.2-2.1.7c-.6.5-.9 1.2-.9 2.2v10.9zm-17-16.9v9.9c0 3-.8 5-2.4 5.9-1.6.9-3.3 1.4-5.2 1.4-1.8-.1-3.5-.6-5-1.5s-2.3-2.9-2.3-5.8V9.5H56v10.8c0 1 .3 1.8.9 2.2a3 3 0 002 .7c.8 0 1.5-.2 2.1-.7.6-.5.9-1.2.9-2.2v-8.7c0-.6.2-1.1.6-1.5.4-.4.9-.6 1.6-.6h2.3zM40.1 26.4v-8.2c0-1.7.2-3 .7-4.2a8 8 0 012-2.7c.8-.6 1.7-1.1 2.8-1.4 1.1-.3 2.2-.4 3.3-.4h.6V14H48c-1.2 0-2.1.3-2.7.9-.6.6-.9 1.5-.9 2.8v8.7h-4.3z"
     fill="#323232"
     id="path6"
     style="fill:#fffffe;fill-opacity:1" />
  <path
     class="st0"
     d="M14.5 12.1c-2.3 1.3-2.3 9 0 10.2 2.3 1.3 8.6-3.3 8.6-5.3 0-2.5-6.4-6.1-8.6-4.9z"
     id="path8"
     style="fill:#01b214;fill-opacity:1" />
  <defs
     id="defs11">
    <path
       id="si1"
       d="M7.1 3.5c.8-.5 1.8-.7 2.8-.6.4-.5.9-1 1.5-1.3 2.7-1.5 7-.2 13.3 3.5 6.5 3.8 9.7 6.8 9.7 10 0 .7-.2 1.5-.5 2.2.4.8.6 1.5.5 2.3 0 3.1-3.3 6.2-9.7 9.9-6.4 3.7-10.6 5-13.4 3.5a5 5 0 01-1.9-1.9c-.9 0-1.7-.2-2.4-.6-2.7-1.6-3.8-5.9-3.8-13.4C3.3 9.3 4.3 5 7.1 3.5zM11.9 7c-4.5 2.5-4.5 17.9 0 20.4 4.6 2.7 17-6.5 17.1-10.4 0-5.2-12.7-12.4-17.1-10z" />
  </defs>
  <clipPath
     id="si2">
    <use
       xlink:href="#si1"
       overflow="visible"
       id="use13" />
  </clipPath>
  <g
     class="st2"
     clip-path="url(#si2)"
     id="g28">
    <linearGradient
       id="si3"
       gradientUnits="userSpaceOnUse"
       x1="25.299999"
       y1="27.799999"
       x2="30.1"
       y2="14.6"
       gradientTransform="matrix(0.9939,0.02784,-0.01545,0.9862,-2.9,-4.7)"
       xlink:href="#si4">
      <stop
         offset=".3"
         stop-color="#74a441"
         stop-opacity="0"
         id="stop16" />
      <stop
         offset="1"
         stop-color="#4c771f"
         id="stop18"
         style="stop-color:#008800;stop-opacity:1" />
    </linearGradient>
    <path
       d="M28.7 17.1c0 1.8-2.1 3.8-4.4 5.7l5.3 3.6c3.2-2.4 4.9-4.5 4.9-6.8 0-.6-.1-1.3-.4-1.9C31.9 12.6 23 8.4 16.8 7c5.6 1.6 12 6.4 11.9 10.1z"
       fill="url(#si3)"
       id="path21"
       style="fill-opacity:1.0" />
    <linearGradient
       id="si4"
       gradientUnits="userSpaceOnUse"
       x1="16.8"
       y1="10.8"
       x2="16.8"
       y2="10.8"
       gradientTransform="matrix(.9939 .02784 -.01545 .9862 -2.9 -4.7)">
      <stop
         offset=".3"
         stop-color="#74a441"
         stop-opacity="0"
         id="stop23" />
      <stop
         offset="1"
         stop-color="#4c771f"
         id="stop25" />
    </linearGradient>
  </g>
  <g
     class="st2"
     clip-path="url(#si2)"
     id="g42">
    <linearGradient
       id="si5"
       gradientUnits="userSpaceOnUse"
       x1="488.29999"
       y1="8.8000002"
       x2="491.60001"
       y2="-7.0999999"
       gradientTransform="matrix(-0.5069,0.8385,-0.8387,-0.511,262.6,-387.1)">
      <stop
         offset=".3"
         stop-color="#74a441"
         stop-opacity="0"
         id="stop30" />
      <stop
         offset="1"
         stop-color="#4c771f"
         id="stop32"
         style="stop-color:#008800;stop-opacity:1" />
    </linearGradient>
    <path
       d="M 11.5,26.6 C 10,25.7 9.3,22.9 8.8,20 l -5.7,2.7 c 0.5,4 1.5,6.5 3.4,7.6 0.5,0.3 1.2,0.5 1.8,0.6 5.4,0.8 13.4,-4.8 17.6,-9.4 -3.9,4 -11.2,7 -14.4,5.1 z"
       fill="url(#si5)"
       id="path35" />
    <linearGradient
       id="si6"
       gradientUnits="userSpaceOnUse"
       x1="478.70001"
       y1="-9.6000004"
       x2="478.70001"
       y2="-9.6000004"
       gradientTransform="matrix(-0.5069,0.8385,-0.8387,-0.511,262.6,-387.1)">
      <stop
         offset=".3"
         stop-color="#74a441"
         stop-opacity="0"
         id="stop37" />
      <stop
         offset="1"
         stop-color="#4c771f"
         id="stop39" />
    </linearGradient>
  </g>
  <g
     class="st2"
     clip-path="url(#si2)"
     id="g56">
    <linearGradient
       id="si7"
       gradientUnits="userSpaceOnUse"
       x1="21.6"
       y1="8"
       x2="5.9000001"
       y2="13.8">
      <stop
         offset=".3"
         stop-color="#74a441"
         stop-opacity="0"
         id="stop44" />
      <stop
         offset="1"
         stop-color="#4c771f"
         id="stop46"
         style="stop-color:#008800;stop-opacity:1" />
    </linearGradient>
    <path
       d="m 11.9,7 c 1.6,-0.9 4.2,-0.5 6.9,0.5 L 19.6,2.4 C 16,0.8 13.3,0.5 11.4,1.5 10.8,1.8 10.4,2.2 9.9,2.8 6.6,7.2 7.4,16.8 9.2,22.8 7.8,17.2 8.7,8.8 11.9,7 Z"
       fill="url(#si7)"
       id="path49" />
    <linearGradient
       id="si8"
       gradientUnits="userSpaceOnUse"
       x1="10.2"
       y1="25.6"
       x2="10.2"
       y2="25.6">
      <stop
         offset=".3"
         stop-color="#fff"
         stop-opacity="0"
         id="stop51" />
      <stop
         offset="1"
         stop-color="#ababab"
         id="stop53" />
    </linearGradient>
  </g>
</svg>
